<svg width="124" height="32" viewBox="0 0 124 32" fill="none" xmlns="http://www.w3.org/2000/svg">
<circle cx="16" cy="16" r="16" fill="#FF8577"/>
<path d="M26 16C26 17.6578 25.5879 19.2896 24.8006 20.7486C24.0134 22.2075 22.8758 23.4479 21.4902 24.3581C20.1046 25.2682 18.5145 25.8197 16.8629 25.9627C15.2112 26.1057 13.55 25.8359 12.0285 25.1775C10.5071 24.5192 9.17317 23.4928 8.14683 22.1909C7.1205 20.889 6.43393 19.3524 6.14891 17.7193C5.86388 16.0862 5.98934 14.4078 6.514 12.8352C7.03865 11.2626 7.94604 9.84516 9.15453 8.71031L13.5356 13.3757C13.1006 13.7843 12.7739 14.2946 12.585 14.8607C12.3962 15.4268 12.351 16.031 12.4536 16.6189C12.5562 17.2069 12.8034 17.7601 13.1729 18.2287C13.5423 18.6974 14.0225 19.0669 14.5703 19.3039C15.118 19.5409 15.716 19.6381 16.3106 19.5866C16.9052 19.5351 17.4777 19.3366 17.9765 19.0089C18.4753 18.6812 18.8848 18.2347 19.1682 17.7095C19.4516 17.1843 19.6 16.5968 19.6 16H26Z" fill="#5551FF"/>
</svg>
