<svg width="124" height="32" viewBox="0 0 124 32" fill="none" xmlns="http://www.w3.org/2000/svg">
<circle cx="16" cy="16" r="16" fill="#FF8577"/>
<path d="M26 16C26 17.6578 25.5879 19.2896 24.8006 20.7486C24.0134 22.2075 22.8758 23.4479 21.4902 24.3581C20.1046 25.2682 18.5145 25.8197 16.8629 25.9627C15.2112 26.1057 13.55 25.8359 12.0285 25.1775C10.5071 24.5192 9.17317 23.4928 8.14683 22.1909C7.1205 20.889 6.43393 19.3524 6.14891 17.7193C5.86388 16.0862 5.98934 14.4078 6.514 12.8352C7.03865 11.2626 7.94604 9.84516 9.15453 8.71031L13.5356 13.3757C13.1006 13.7843 12.7739 14.2946 12.585 14.8607C12.3962 15.4268 12.351 16.031 12.4536 16.6189C12.5562 17.2069 12.8034 17.7601 13.1729 18.2287C13.5423 18.6974 14.0225 19.0669 14.5703 19.3039C15.118 19.5409 15.716 19.6381 16.3106 19.5866C16.9052 19.5351 17.4777 19.3366 17.9765 19.0089C18.4753 18.6812 18.8848 18.2347 19.1682 17.7095C19.4516 17.1843 19.6 16.5968 19.6 16H26Z" fill="#5551FF"/>
<path d="M55.5107 13.0784C54.9691 8.58432 51.5677 6 47.0641 6C41.924 6 38 9.62945 38 15.9952C38 22.342 41.8575 25.9905 47.0641 25.9905C52.0523 25.9905 55.0641 22.6746 55.5107 19.0926L51.3492 19.0736C50.9596 21.1544 49.3254 22.3515 47.1306 22.3515C44.1758 22.3515 42.171 20.1568 42.171 15.9952C42.171 11.9477 44.1473 9.63896 47.1591 9.63896C49.4109 9.63896 51.0356 10.9406 51.3492 13.0784H55.5107Z" fill="white"/>
<path d="M57.8722 25.7245H61.9862V18.8266H64.9886L68.675 25.7245H73.2166L69.0836 18.1615C71.2974 17.2114 72.523 15.2827 72.523 12.6223C72.523 8.75534 69.9672 6.26603 65.5491 6.26603H57.8722V25.7245ZM61.9862 15.5202V9.62945H64.7605C67.1358 9.62945 68.2855 10.6841 68.2855 12.6223C68.2855 14.5511 67.1358 15.5202 64.7796 15.5202H61.9862Z" fill="white"/>
<path d="M92.0104 13.0784C91.4688 8.58432 88.0674 6 83.5639 6C78.4237 6 74.4997 9.62945 74.4997 15.9952C74.4997 22.342 78.3572 25.9905 83.5639 25.9905C88.552 25.9905 91.5639 22.6746 92.0104 19.0926L87.8489 19.0736C87.4593 21.1544 85.8251 22.3515 83.6304 22.3515C80.6755 22.3515 78.6707 20.1568 78.6707 15.9952C78.6707 11.9477 80.647 9.63896 83.6589 9.63896C85.9106 9.63896 87.5353 10.9406 87.8489 13.0784H92.0104Z" fill="white"/>
<path d="M94.3719 25.7245H106.828V22.3325H98.4859V6.26603H94.3719V25.7245Z" fill="white"/>
<path d="M119.52 11.8622H123.463C123.406 8.3943 120.555 6 116.223 6C111.957 6 108.831 8.35629 108.85 11.8907C108.84 14.7601 110.864 16.4038 114.151 17.1924L116.27 17.7245C118.389 18.2375 119.567 18.8456 119.577 20.1568C119.567 21.5819 118.218 22.5511 116.128 22.5511C113.99 22.5511 112.451 21.5629 112.318 19.6152H108.337C108.441 23.8242 111.453 26 116.175 26C120.926 26 123.719 23.7292 123.729 20.1663C123.719 16.9264 121.277 15.2066 117.895 14.4466L116.147 14.0285C114.455 13.639 113.04 13.0119 113.068 11.6152C113.068 10.361 114.18 9.43943 116.194 9.43943C118.161 9.43943 119.368 10.3325 119.52 11.8622Z" fill="white"/>
</svg>
