<svg width="81" height="81" viewBox="0 0 81 81" fill="none" xmlns="http://www.w3.org/2000/svg">
<path d="M40.5 81C62.8675 81 81 62.8675 81 40.5C81 18.1325 62.8675 0 40.5 0C18.1325 0 0 18.1325 0 40.5C0 62.8675 18.1325 81 40.5 81Z" fill="#CCCCCC"/>
<path d="M66 40.5513C66 44.7702 64.9491 48.9229 62.9415 52.6359C60.9342 56.3486 58.0333 59.5053 54.5 61.8216C50.9667 64.1377 46.912 65.5412 42.7004 65.9051C38.4886 66.269 34.2525 65.5824 30.3727 63.9069C26.4931 62.2316 23.0916 59.6196 20.4744 56.3064C17.8573 52.9932 16.1065 49.0828 15.3797 44.9267C14.6529 40.7707 14.9728 36.4994 16.3107 32.4973C17.6486 28.4953 19.9624 24.888 23.0441 22L34.2158 33.8728C33.1065 34.9127 32.2734 36.2113 31.7918 37.652C31.3103 39.0926 31.1951 40.6302 31.4567 42.1264C31.7183 43.6227 32.3487 45.0306 33.2909 46.2231C34.2329 47.4159 35.4574 48.3562 36.8543 48.9593C38.2509 49.5625 39.7758 49.8098 41.292 49.6788C42.8083 49.5477 44.2681 49.0426 45.5401 48.2086C46.812 47.3746 47.8562 46.2384 48.5789 44.9018C49.3016 43.5652 49.68 42.0701 49.68 40.5513H66Z" fill="#6F6F6F"/>
</svg>

